<svg height="512" width="512" xmlns="http://www.w3.org/2000/svg" data-name="Layer 2"><path d="M80 48H24A16 16 0 0 0 8 64v424a16 16 0 0 0 16 16h416a16 16 0 0 0 16-16v-24z" fill="#443c3c"/><path d="M104 464a56 56 0 0 1-56-56V64a16 16 0 0 1 16-16h376a16 16 0 0 1 16 16v344c0 30.928 17.072 56 48 56z" fill="#fff"/><path d="M456 64a16 16 0 0 0-16-16H64a16 16 0 0 0-16 16v88h408z" fill="#f75252"/><path d="M456 72.4V64a16 16 0 0 0-16-16H64a16 16 0 0 0-16 16v258.377C196.36 101.68 412.051 75.477 456 72.4z" fill="#fff" opacity=".2"/><circle cx="148" cy="100" fill="#fff" r="28"/><circle cx="380" cy="100" fill="#fff" r="28"/><path d="M160 104h-16V24a8.009 8.009 0 0 0-8-8h-32a8.009 8.009 0 0 0-8 8v24H80V24a24.027 24.027 0 0 1 24-24h32a24.027 24.027 0 0 1 24 24zM392 104h-16V24a8.009 8.009 0 0 0-8-8h-32a8.009 8.009 0 0 0-8 8v24h-16V24a24.027 24.027 0 0 1 24-24h32a24.027 24.027 0 0 1 24 24z" fill="#494040"/><path d="M131.692 429.538 96 376h152l-32 40z" fill="#d6940f"/><path d="m176 264-56 80h56z" fill="#17c4e0"/><path d="M216 416s64-48 136-48h72v64H216z" fill="#bf6d13"/><g fill="#658e35"><path d="M344 368h-16c0-106.094 40.614-147.928 42.343-149.657l11.314 11.313L376 224l5.686 5.628c-.094.1-9.5 9.838-18.8 31.6C354.272 281.4 344 316.3 344 368z"/><path d="m293.657 237.657-11.314-11.313c23.1-23.1 48.663-24.29 66.048-21.222a91.537 91.537 0 0 1 32.047 12.222l-8.856 13.325c-1.748-1.151-43.168-27.769-77.925 6.988z"/><path d="M424.108 273.315c-2.855-17.136-11.759-29.266-26.461-36.051A59.025 59.025 0 0 0 376 232v-16a74.36 74.36 0 0 1 28.353 6.736c13.614 6.284 30.831 19.7 35.539 47.949z"/><path d="m383.428 226.971-14.855-5.942a65.4 65.4 0 0 1 16.076-21.975c10.431-9.388 28.725-19.6 56.667-14.945l-2.631 15.782c-17.38-2.9-31.963.822-43.333 11.055a49.808 49.808 0 0 0-11.924 16.025z"/><path d="M368.085 225.163a56.743 56.743 0 0 0-10.792-23.755c-11.434-14.5-29.031-20.38-52.3-17.469l-1.984-15.877c36.815-4.6 56.937 10.544 67.333 24.061a72.2 72.2 0 0 1 13.579 30.746z"/></g><circle cx="228" cy="220" fill="#f75252" r="28"/><path d="M384 296c0-.149-.021-15.081-1.522-30.94-2.346-24.785-6.271-31.512-7.5-33.053-19.837.313-36.361 9.779-49.129 28.149a103.634 103.634 0 0 0-14.094 29.8l-15.519-3.894a118.142 118.142 0 0 1 16.168-34.592C328.36 228.265 350.35 216 376 216c15.21 0 19.721 23.042 21.951 43.117C399.977 277.347 400 295.247 400 296z" fill="#658e35"/><path d="M104 208h16v16h-16zM144 232h16v16h-16zM248 288h16v16h-16z" fill="#17c4e0"/><path d="M168 264h16v112h-16z" fill="#bf6d13"/><path d="M104 464h320v-59c-28.668 0-28.668 22-57.336 22S338 405 309.327 405s-28.667 22-57.334 22-28.666-22-57.332-22-28.661 22-57.329 22S108.666 405 80 405v53.6a55.772 55.772 0 0 0 24 5.4z" fill="#17c4e0"/></svg>